<svg width="563" height="115" viewBox="0 0 563 115" fill="none" xmlns="http://www.w3.org/2000/svg">
<path d="M11.4138 40.25C11.4138 41.775 10.8126 43.2375 9.74232 44.3159C8.67207 45.3942 7.22049 46 5.70692 46C4.19335 46 2.74177 45.3942 1.67152 44.3159C0.601264 43.2375 0 41.775 0 40.25C-7.8173e-08 34.9643 1.0333 29.7303 3.04089 24.847C5.04849 19.9636 7.99107 15.5265 11.7006 11.789C15.4102 8.05139 19.8141 5.0866 24.6608 3.06385C29.5076 1.0411 34.7023 0 39.9484 0C45.1945 0 50.3893 1.0411 55.236 3.06385C60.0828 5.0866 64.4867 8.05139 68.1962 11.789C71.9058 15.5265 74.8484 19.9636 76.856 24.847C78.8636 29.7303 79.8969 34.9643 79.8969 40.25V51.75C79.8969 53.275 79.2956 54.7375 78.2254 55.8159C77.1551 56.8942 75.7035 57.5 74.19 57.5C72.6764 57.5 71.2248 56.8942 70.1545 55.8159C69.0843 54.7375 68.483 53.275 68.483 51.75V40.25C68.483 32.625 65.4767 25.3124 60.1254 19.9207C54.7742 14.529 47.5163 11.5 39.9484 11.5C32.3806 11.5 25.1227 14.529 19.7714 19.9207C14.4202 25.3124 11.4138 32.625 11.4138 40.25V40.25ZM28.5346 57.5C28.5346 59.025 27.9333 60.4875 26.8631 61.5659C25.7928 62.6442 24.3412 63.25 22.8277 63.25C21.3141 63.25 19.8625 62.6442 18.7923 61.5659C17.722 60.4875 17.1208 59.025 17.1208 57.5V40.25C17.1208 34.15 19.5258 28.2999 23.8068 23.9865C28.0879 19.6732 33.8942 17.25 39.9484 17.25C46.0027 17.25 51.809 19.6732 56.09 23.9865C60.3711 28.2999 62.7761 34.15 62.7761 40.25C62.7761 41.775 62.1749 43.2375 61.1046 44.3159C60.0343 45.3942 58.5828 46 57.0692 46C55.5556 46 54.1041 45.3942 53.0338 44.3159C51.9635 43.2375 51.3623 41.775 51.3623 40.25C51.3623 37.2 50.1597 34.2749 48.0192 32.1183C45.8787 29.9616 42.9756 28.75 39.9484 28.75C36.9213 28.75 34.0181 29.9616 31.8776 32.1183C29.7371 34.2749 28.5346 37.2 28.5346 40.25V57.5ZM17.1208 74.75C17.1208 73.225 17.722 71.7625 18.7923 70.6841C19.8625 69.6058 21.3141 69 22.8277 69C24.3412 69 25.7928 69.6058 26.8631 70.6841C27.9333 71.7625 28.5346 73.225 28.5346 74.75C28.5346 77.8 29.7371 80.7251 31.8776 82.8817C34.0181 85.0384 36.9213 86.25 39.9484 86.25C42.9756 86.25 45.8787 85.0384 48.0192 82.8817C50.1597 80.7251 51.3623 77.8 51.3623 74.75V57.5C51.3623 55.975 51.9635 54.5125 53.0338 53.4341C54.1041 52.3558 55.5556 51.75 57.0692 51.75C58.5828 51.75 60.0343 52.3558 61.1046 53.4341C62.1749 54.5125 62.7761 55.975 62.7761 57.5V74.75C62.7761 80.85 60.3711 86.7001 56.09 91.0135C51.809 95.3268 46.0027 97.75 39.9484 97.75C33.8942 97.75 28.0879 95.3268 23.8068 91.0135C19.5258 86.7001 17.1208 80.85 17.1208 74.75V74.75ZM34.2415 46C34.2415 44.475 34.8428 43.0125 35.913 41.9341C36.9833 40.8558 38.4349 40.25 39.9484 40.25C41.462 40.25 42.9136 40.8558 43.9838 41.9341C45.0541 43.0125 45.6554 44.475 45.6554 46V69C45.6554 70.525 45.0541 71.9875 43.9838 73.0659C42.9136 74.1442 41.462 74.75 39.9484 74.75C38.4349 74.75 36.9833 74.1442 35.913 73.0659C34.8428 71.9875 34.2415 70.525 34.2415 69V46ZM0 63.25C0 61.725 0.601264 60.2625 1.67152 59.1841C2.74177 58.1058 4.19335 57.5 5.70692 57.5C7.22049 57.5 8.67207 58.1058 9.74232 59.1841C10.8126 60.2625 11.4138 61.725 11.4138 63.25V74.75C11.4138 82.375 14.4202 89.6876 19.7714 95.0793C25.1227 100.471 32.3806 103.5 39.9484 103.5C47.5163 103.5 54.7742 100.471 60.1254 95.0793C65.4767 89.6876 68.483 82.375 68.483 74.75C68.483 73.225 69.0843 71.7625 70.1545 70.6841C71.2248 69.6058 72.6764 69 74.19 69C75.7035 69 77.1551 69.6058 78.2254 70.6841C79.2956 71.7625 79.8969 73.225 79.8969 74.75C79.8969 85.425 75.688 95.6627 68.1962 103.211C60.7045 110.759 50.5434 115 39.9484 115C29.3535 115 19.1924 110.759 11.7006 103.211C4.20884 95.6627 1.57878e-07 85.425 0 74.75V63.25Z" fill="black"/>
<path d="M112.062 79V33.5H126.062C130.062 33.5 133.635 34.4062 136.781 36.2188C139.948 38.0104 142.417 40.5729 144.188 43.9062C145.958 47.2188 146.844 50.9896 146.844 55.2188V57.3125C146.844 61.5417 145.969 65.3021 144.219 68.5938C142.49 71.8854 140.042 74.4375 136.875 76.25C133.708 78.0625 130.135 78.9792 126.156 79H112.062ZM121.438 41.0938V71.4688H125.969C129.635 71.4688 132.438 70.2708 134.375 67.875C136.312 65.4792 137.302 62.0521 137.344 57.5938V55.1875C137.344 50.5625 136.385 47.0625 134.469 44.6875C132.552 42.2917 129.75 41.0938 126.062 41.0938H121.438ZM162.625 79H153.562V45.1875H162.625V79ZM153.031 36.4375C153.031 35.0833 153.479 33.9688 154.375 33.0938C155.292 32.2188 156.531 31.7812 158.094 31.7812C159.635 31.7812 160.865 32.2188 161.781 33.0938C162.698 33.9688 163.156 35.0833 163.156 36.4375C163.156 37.8125 162.688 38.9375 161.75 39.8125C160.833 40.6875 159.615 41.125 158.094 41.125C156.573 41.125 155.344 40.6875 154.406 39.8125C153.49 38.9375 153.031 37.8125 153.031 36.4375ZM168.781 61.8438C168.781 56.6562 170.01 52.4792 172.469 49.3125C174.948 46.1458 178.281 44.5625 182.469 44.5625C186.177 44.5625 189.062 45.8333 191.125 48.375L191.5 45.1875H199.688V77.875C199.688 80.8333 199.01 83.4062 197.656 85.5938C196.323 87.7812 194.438 89.4479 192 90.5938C189.562 91.7396 186.708 92.3125 183.438 92.3125C180.958 92.3125 178.542 91.8125 176.188 90.8125C173.833 89.8333 172.052 88.5625 170.844 87L174.844 81.5C177.094 84.0208 179.823 85.2812 183.031 85.2812C185.427 85.2812 187.292 84.6354 188.625 83.3438C189.958 82.0729 190.625 80.2604 190.625 77.9062V76.0938C188.542 78.4479 185.802 79.625 182.406 79.625C178.344 79.625 175.052 78.0417 172.531 74.875C170.031 71.6875 168.781 67.4688 168.781 62.2188V61.8438ZM177.812 62.5C177.812 65.5625 178.427 67.9688 179.656 69.7188C180.885 71.4479 182.573 72.3125 184.719 72.3125C187.469 72.3125 189.438 71.2812 190.625 69.2188V55C189.417 52.9375 187.469 51.9062 184.781 51.9062C182.615 51.9062 180.906 52.7917 179.656 54.5625C178.427 56.3333 177.812 58.9792 177.812 62.5ZM216.188 79H207.125V45.1875H216.188V79ZM206.594 36.4375C206.594 35.0833 207.042 33.9688 207.938 33.0938C208.854 32.2188 210.094 31.7812 211.656 31.7812C213.198 31.7812 214.427 32.2188 215.344 33.0938C216.26 33.9688 216.719 35.0833 216.719 36.4375C216.719 37.8125 216.25 38.9375 215.312 39.8125C214.396 40.6875 213.177 41.125 211.656 41.125C210.135 41.125 208.906 40.6875 207.969 39.8125C207.052 38.9375 206.594 37.8125 206.594 36.4375ZM234.469 36.875V45.1875H240.25V51.8125H234.469V68.6875C234.469 69.9375 234.708 70.8333 235.188 71.375C235.667 71.9167 236.583 72.1875 237.938 72.1875C238.938 72.1875 239.823 72.1146 240.594 71.9688V78.8125C238.823 79.3542 237 79.625 235.125 79.625C228.792 79.625 225.562 76.4271 225.438 70.0312V51.8125H220.5V45.1875H225.438V36.875H234.469ZM264.875 79C264.458 78.1875 264.156 77.1771 263.969 75.9688C261.781 78.4062 258.938 79.625 255.438 79.625C252.125 79.625 249.375 78.6667 247.188 76.75C245.021 74.8333 243.938 72.4167 243.938 69.5C243.938 65.9167 245.26 63.1667 247.906 61.25C250.573 59.3333 254.417 58.3646 259.438 58.3438H263.594V56.4062C263.594 54.8438 263.188 53.5938 262.375 52.6562C261.583 51.7188 260.323 51.25 258.594 51.25C257.073 51.25 255.875 51.6146 255 52.3438C254.146 53.0729 253.719 54.0729 253.719 55.3438H244.688C244.688 53.3854 245.292 51.5729 246.5 49.9062C247.708 48.2396 249.417 46.9375 251.625 46C253.833 45.0417 256.312 44.5625 259.062 44.5625C263.229 44.5625 266.531 45.6146 268.969 47.7188C271.427 49.8021 272.656 52.7396 272.656 56.5312V71.1875C272.677 74.3958 273.125 76.8229 274 78.4688V79H264.875ZM257.406 72.7188C258.74 72.7188 259.969 72.4271 261.094 71.8438C262.219 71.2396 263.052 70.4375 263.594 69.4375V63.625H260.219C255.698 63.625 253.292 65.1875 253 68.3125L252.969 68.8438C252.969 69.9688 253.365 70.8958 254.156 71.625C254.948 72.3542 256.031 72.7188 257.406 72.7188ZM289.125 79H280.062V31H289.125V79ZM325.375 33.5L337.062 66.5L348.688 33.5H361V79H351.594V66.5625L352.531 45.0938L340.25 79H333.812L321.562 45.125L322.5 66.5625V79H313.125V33.5H325.375ZM388.188 79C387.771 78.1875 387.469 77.1771 387.281 75.9688C385.094 78.4062 382.25 79.625 378.75 79.625C375.438 79.625 372.688 78.6667 370.5 76.75C368.333 74.8333 367.25 72.4167 367.25 69.5C367.25 65.9167 368.573 63.1667 371.219 61.25C373.885 59.3333 377.729 58.3646 382.75 58.3438H386.906V56.4062C386.906 54.8438 386.5 53.5938 385.688 52.6562C384.896 51.7188 383.635 51.25 381.906 51.25C380.385 51.25 379.188 51.6146 378.312 52.3438C377.458 53.0729 377.031 54.0729 377.031 55.3438H368C368 53.3854 368.604 51.5729 369.812 49.9062C371.021 48.2396 372.729 46.9375 374.938 46C377.146 45.0417 379.625 44.5625 382.375 44.5625C386.542 44.5625 389.844 45.6146 392.281 47.7188C394.74 49.8021 395.969 52.7396 395.969 56.5312V71.1875C395.99 74.3958 396.438 76.8229 397.312 78.4688V79H388.188ZM380.719 72.7188C382.052 72.7188 383.281 72.4271 384.406 71.8438C385.531 71.2396 386.365 70.4375 386.906 69.4375V63.625H383.531C379.01 63.625 376.604 65.1875 376.312 68.3125L376.281 68.8438C376.281 69.9688 376.677 70.8958 377.469 71.625C378.26 72.3542 379.344 72.7188 380.719 72.7188ZM421.906 53.6562C420.677 53.4896 419.594 53.4062 418.656 53.4062C415.24 53.4062 413 54.5625 411.938 56.875V79H402.906V45.1875H411.438L411.688 49.2188C413.5 46.1146 416.01 44.5625 419.219 44.5625C420.219 44.5625 421.156 44.6979 422.031 44.9688L421.906 53.6562ZM438.562 65.4375L435.312 68.6875V79H426.281V31H435.312V57.5938L437.062 55.3438L445.719 45.1875H456.562L444.344 59.2812L457.625 79H447.25L438.562 65.4375ZM475.406 79.625C470.448 79.625 466.406 78.1042 463.281 75.0625C460.177 72.0208 458.625 67.9688 458.625 62.9062V62.0312C458.625 58.6354 459.281 55.6042 460.594 52.9375C461.906 50.25 463.76 48.1875 466.156 46.75C468.573 45.2917 471.323 44.5625 474.406 44.5625C479.031 44.5625 482.667 46.0208 485.312 48.9375C487.979 51.8542 489.312 55.9896 489.312 61.3438V65.0312H467.781C468.073 67.2396 468.948 69.0104 470.406 70.3438C471.885 71.6771 473.75 72.3438 476 72.3438C479.479 72.3438 482.198 71.0833 484.156 68.5625L488.594 73.5312C487.24 75.4479 485.406 76.9479 483.094 78.0312C480.781 79.0938 478.219 79.625 475.406 79.625ZM474.375 51.875C472.583 51.875 471.125 52.4792 470 53.6875C468.896 54.8958 468.188 56.625 467.875 58.875H480.438V58.1562C480.396 56.1562 479.854 54.6146 478.812 53.5312C477.771 52.4271 476.292 51.875 474.375 51.875ZM505.281 36.875V45.1875H511.062V51.8125H505.281V68.6875C505.281 69.9375 505.521 70.8333 506 71.375C506.479 71.9167 507.396 72.1875 508.75 72.1875C509.75 72.1875 510.635 72.1146 511.406 71.9688V78.8125C509.635 79.3542 507.812 79.625 505.938 79.625C499.604 79.625 496.375 76.4271 496.25 70.0312V51.8125H491.312V45.1875H496.25V36.875H505.281Z" fill="white"/>
</svg>
